<svg width="40" height="40" viewBox="0 0 40 40" fill="none" xmlns="http://www.w3.org/2000/svg">
<path d="M23.5272 29.7435C26.9257 29.7435 29.6851 26.9763 29.7046 23.5973L29.7436 18.6222L29.6851 18.3494L29.5234 18.0103L29.2467 17.7959C28.8881 17.5153 27.0719 17.8154 26.5828 17.3711C26.2359 17.0535 26.1813 16.4825 26.0761 15.705C25.8812 14.2025 25.7585 14.1246 25.5227 13.614C24.6652 11.8036 22.3463 10.4434 20.7522 10.2563H16.4319C14.7979 10.2589 13.2313 10.908 12.0742 12.0617C10.9171 13.2155 10.2636 14.7803 10.2564 16.4143V23.5973C10.2564 26.9763 13.0353 29.7435 16.4338 29.7435H23.5272ZM16.5118 15.286H19.9357C20.5885 15.286 21.1186 15.818 21.1186 16.463C21.1186 17.1061 20.5885 17.64 19.9357 17.64H16.5118C16.1992 17.6395 15.8996 17.5155 15.678 17.2951C15.4564 17.0746 15.331 16.7756 15.3289 16.463C15.3289 15.818 15.857 15.286 16.5118 15.286ZM15.3289 23.5076C15.3289 22.8645 15.857 22.3364 16.5118 22.3364H23.4687C24.1176 22.3364 24.6457 22.8626 24.6457 23.5076C24.6457 24.1449 24.1196 24.6788 23.4687 24.6788H16.5118C16.2001 24.6788 15.901 24.5558 15.6795 24.3365C15.458 24.1172 15.332 23.8193 15.3289 23.5076Z" fill="#572C57"/>
<path d="M8 4C6.93913 4 5.92172 4.42143 5.17157 5.17157C4.42143 5.92172 4 6.93913 4 8V32C4 33.0609 4.42143 34.0783 5.17157 34.8284C5.92172 35.5786 6.93913 36 8 36H32C33.0609 36 34.0783 35.5786 34.8284 34.8284C35.5786 34.0783 36 33.0609 36 32V8C36 6.93913 35.5786 5.92172 34.8284 5.17157C34.0783 4.42143 33.0609 4 32 4H8ZM8 0H32C34.1217 0 36.1566 0.842855 37.6569 2.34315C39.1571 3.84344 40 5.87827 40 8V32C40 34.1217 39.1571 36.1566 37.6569 37.6569C36.1566 39.1571 34.1217 40 32 40H8C5.87827 40 3.84344 39.1571 2.34315 37.6569C0.842855 36.1566 0 34.1217 0 32V8C0 5.87827 0.842855 3.84344 2.34315 2.34315C3.84344 0.842855 5.87827 0 8 0Z" fill="#572C57"/>
</svg>
