<svg width="30" height="30" viewBox="0 0 30 30" fill="none" xmlns="http://www.w3.org/2000/svg">
<path fill-rule="evenodd" clip-rule="evenodd" d="M0 5C0 3.67392 0.526784 2.40215 1.46447 1.46447C2.40215 0.526784 3.67392 0 5 0H25C26.3261 0 27.5979 0.526784 28.5355 1.46447C29.4732 2.40215 30 3.67392 30 5V25C30 26.3261 29.4732 27.5979 28.5355 28.5355C27.5979 29.4732 26.3261 30 25 30H5C3.67392 30 2.40215 29.4732 1.46447 28.5355C0.526784 27.5979 0 26.3261 0 25V5ZM5 3.33333H25C25.442 3.33333 25.866 3.50893 26.1785 3.82149C26.4911 4.13405 26.6667 4.55797 26.6667 5V25C26.6667 25.442 26.4911 25.866 26.1785 26.1785C25.866 26.4911 25.442 26.6667 25 26.6667H5C4.55797 26.6667 4.13405 26.4911 3.82149 26.1785C3.50893 25.866 3.33333 25.442 3.33333 25V5C3.33333 4.55797 3.50893 4.13405 3.82149 3.82149C4.13405 3.50893 4.55797 3.33333 5 3.33333Z" fill="#572C57"/>
<path d="M15.4361 15.0528C17.1611 15.0528 18.5028 13.6473 18.5028 11.9223C18.5028 10.1973 17.0972 8.85559 15.3722 8.85559C13.6472 8.85559 12.3055 10.2611 12.3055 11.9223C12.3055 13.6473 13.7111 15.0528 15.4361 15.0528ZM15.3722 10.1334C15.4361 10.1334 15.4361 10.1334 15.3722 10.1334C16.3944 10.1334 17.225 10.9639 17.225 11.9861C17.225 13.0084 16.3944 13.775 15.3722 13.775C14.35 13.775 13.5833 12.9445 13.5833 11.9861C13.5833 10.9639 14.4139 10.1334 15.3722 10.1334Z" fill="#572C57"/>
<path d="M24.8916 14.6694C23.6778 13.5833 22.0805 13.0083 20.4194 13.0722H19.9083C19.7805 13.5833 19.5889 14.0305 19.3333 14.4139C19.7166 14.35 20.0361 14.35 20.4194 14.35C21.6333 14.2861 22.8472 14.6694 23.8055 15.3722V19.9722H25.0833V14.8611L24.8916 14.6694Z" fill="#572C57"/>
<path d="M18.95 8.9833C19.2694 8.21664 20.1639 7.8333 20.9944 8.15275C21.7611 8.47219 22.1444 9.36664 21.825 10.1972C21.5694 10.7722 20.9944 11.1555 20.4194 11.1555C20.2917 11.1555 20.1 11.1555 19.9722 11.0916C20.0361 11.4111 20.0361 11.7305 20.0361 11.9861V12.3694C20.1639 12.3694 20.2917 12.4333 20.4194 12.4333C22.0167 12.4333 23.2944 11.1555 23.2944 9.62219C23.2944 8.02497 22.0167 6.74719 20.4833 6.74719C19.4611 6.74719 18.5667 7.2583 18.0555 8.15275C18.375 8.34441 18.6944 8.59997 18.95 8.9833Z" fill="#572C57"/>
<path d="M11.6667 14.4778C11.4111 14.0945 11.2195 13.6473 11.0917 13.1362H10.5806C8.91947 13.0723 7.32224 13.6473 6.10835 14.6695L5.91669 14.8612V19.9723H7.19446V15.3723C8.21669 14.6695 9.36669 14.2862 10.5806 14.3501C10.9639 14.3501 11.3472 14.4139 11.6667 14.4778Z" fill="#572C57"/>
<path d="M10.5805 12.3694C10.7083 12.3694 10.8361 12.3694 10.9639 12.3055V11.9222C10.9639 11.6028 10.9639 11.2833 11.0278 11.0278C10.9 11.0917 10.7083 11.0917 10.5805 11.0917C9.74999 11.0917 9.04721 10.3889 9.04721 9.55833C9.04721 8.72777 9.74999 8.02499 10.5805 8.02499C11.2194 8.02499 11.7944 8.40833 12.05 8.98333C12.3055 8.66388 12.6889 8.34444 13.0083 8.08888C12.1778 6.74722 10.4528 6.29999 9.1111 7.13055C7.76943 7.9611 7.32221 9.6861 8.15277 11.0278C8.66388 11.8583 9.55832 12.3694 10.5805 12.3694Z" fill="#572C57"/>
<path d="M20.675 18.5028L20.5473 18.3112C19.2695 16.9056 17.4806 16.075 15.5639 16.1389C13.6473 16.075 11.7945 16.9056 10.5167 18.3112L10.3889 18.5028V23.3584C10.3889 23.9334 10.8361 24.4445 11.475 24.4445H19.6528C20.2278 24.4445 20.7389 23.9334 20.7389 23.3584V18.5028H20.675ZM19.3973 23.1667H11.6667V18.95C12.6889 17.9278 14.0945 17.4167 15.5639 17.4167C16.9695 17.3528 18.375 17.9278 19.3973 18.95V23.1667Z" fill="#572C57"/>
</svg>
