<svg width="40" height="40" viewBox="0 0 40 40" fill="none" xmlns="http://www.w3.org/2000/svg">
<path d="M38 20.5891V20.5894V36.0491C38 36.5585 37.7954 37.0521 37.423 37.4199C37.0498 37.7885 36.5384 38 36 38H4C3.46165 38 2.95025 37.7885 2.57702 37.4199C2.20463 37.0521 2 36.5585 2 36.0491V20.5894V20.5891C1.99991 19.7894 2.1651 18.9974 2.48616 18.2614C2.80725 17.5254 3.27786 16.8601 3.87051 16.307L3.87074 16.3068L18.6167 2.54196L18.617 2.5417C18.9869 2.19628 19.4814 2 20 2C20.5186 2 21.0131 2.19628 21.383 2.5417L21.3833 2.54196L36.1293 16.3068L36.1295 16.307C36.7221 16.8601 37.1928 17.5254 37.5138 18.2614C37.8349 18.9974 38.0001 19.7894 38 20.5891Z" stroke="#572C57" stroke-width="4" stroke-linecap="round" stroke-linejoin="round"/>
</svg>
