<svg width="40" height="40" viewBox="0 0 40 40" fill="none" xmlns="http://www.w3.org/2000/svg">
<path d="M11.1469 8.84888C10.5557 8.84888 9.98879 9.08371 9.57079 9.5017C9.1528 9.9197 8.91797 10.4866 8.91797 11.0778C8.91797 11.6689 9.1528 12.2358 9.57079 12.6538C9.98879 13.0718 10.5557 13.3067 11.1469 13.3067H28.8135C29.4047 13.3067 29.9716 13.0718 30.3896 12.6538C30.8076 12.2358 31.0424 11.6689 31.0424 11.0778C31.0424 10.4866 30.8076 9.9197 30.3896 9.5017C29.9716 9.08371 29.4047 8.84888 28.8135 8.84888H11.1469Z" fill="#572C57"/>
<path d="M8.92413 20C8.92413 18.7733 9.91747 17.7711 11.1464 17.7711H28.813C29.4042 17.7711 29.9711 18.0059 30.3891 18.4239C30.8071 18.8419 31.0419 19.4089 31.0419 20C31.0419 20.5911 30.8071 21.1581 30.3891 21.5761C29.9711 21.9941 29.4042 22.2289 28.813 22.2289H11.1464C9.91747 22.2289 8.92413 21.2289 8.92413 20Z" fill="#572C57"/>
<path d="M11.1663 26.6934C10.5749 26.6934 10.0077 26.9283 9.58949 27.3465C9.17129 27.7647 8.93634 28.3319 8.93634 28.9234C8.93634 29.5148 9.17129 30.082 9.58949 30.5002C10.0077 30.9184 10.5749 31.1534 11.1663 31.1534H28.833C29.4244 31.1534 29.9917 30.9184 30.4099 30.5002C30.8281 30.082 31.063 29.5148 31.063 28.9234C31.063 28.3319 30.8281 27.7647 30.4099 27.3465C29.9917 26.9283 29.4244 26.6934 28.833 26.6934H11.1663Z" fill="#572C57"/>
<path fill-rule="evenodd" clip-rule="evenodd" d="M0 6.66667C0 4.89856 0.702379 3.20286 1.95262 1.95262C3.20286 0.702379 4.89856 0 6.66667 0H33.3333C35.1014 0 36.7971 0.702379 38.0474 1.95262C39.2976 3.20286 40 4.89856 40 6.66667V33.3333C40 35.1014 39.2976 36.7971 38.0474 38.0474C36.7971 39.2976 35.1014 40 33.3333 40H6.66667C4.89856 40 3.20286 39.2976 1.95262 38.0474C0.702379 36.7971 0 35.1014 0 33.3333V6.66667ZM6.66667 4.44444H33.3333C33.9227 4.44444 34.4879 4.67857 34.9047 5.09532C35.3214 5.51207 35.5556 6.0773 35.5556 6.66667V33.3333C35.5556 33.9227 35.3214 34.4879 34.9047 34.9047C34.4879 35.3214 33.9227 35.5556 33.3333 35.5556H6.66667C6.0773 35.5556 5.51207 35.3214 5.09532 34.9047C4.67857 34.4879 4.44444 33.9227 4.44444 33.3333V6.66667C4.44444 6.0773 4.67857 5.51207 5.09532 5.09532C5.51207 4.67857 6.0773 4.44444 6.66667 4.44444Z" fill="#572C57"/>
</svg>
