<svg width="40" height="57" viewBox="0 0 40 57" fill="none" xmlns="http://www.w3.org/2000/svg">
<path d="M21.0205 14.76C21.7205 14.88 22.3505 15.09 22.9105 15.39C23.4905 15.67 23.9805 16.02 24.3805 16.44C24.7805 16.86 25.0905 17.33 25.3105 17.85C25.5305 18.35 25.6405 18.88 25.6405 19.44V19.98H23.3605V19.62C23.3605 18.96 23.1405 18.4 22.7005 17.94C22.2805 17.48 21.7205 17.16 21.0205 16.98V21.27C22.6805 21.47 23.9405 21.93 24.8005 22.65C25.6805 23.35 26.1205 24.32 26.1205 25.56V25.74C26.1205 27.08 25.6505 28.16 24.7105 28.98C23.7905 29.78 22.5605 30.23 21.0205 30.33V32.16H18.8605V30.27C17.9805 30.13 17.2205 29.89 16.5805 29.55C15.9605 29.19 15.4405 28.77 15.0205 28.29C14.6205 27.79 14.3205 27.26 14.1205 26.7C13.9205 26.12 13.8205 25.54 13.8205 24.96V24.24H16.1005V24.6C16.1005 25.56 16.3405 26.33 16.8205 26.91C17.3005 27.49 17.9805 27.88 18.8605 28.08V23.19C17.3605 22.99 16.2105 22.56 15.4105 21.9C14.6305 21.22 14.2405 20.28 14.2405 19.08V18.9C14.2405 18.26 14.3605 17.7 14.6005 17.22C14.8605 16.72 15.2005 16.3 15.6205 15.96C16.0405 15.6 16.5305 15.32 17.0905 15.12C17.6505 14.9 18.2405 14.76 18.8605 14.7V12.84H21.0205V14.76ZM23.7805 25.74C23.7805 25.04 23.5605 24.52 23.1205 24.18C22.6805 23.84 21.9805 23.59 21.0205 23.43V28.17C21.8805 28.07 22.5505 27.81 23.0305 27.39C23.5305 26.97 23.7805 26.42 23.7805 25.74ZM16.5805 18.9C16.5805 19.46 16.7405 19.92 17.0605 20.28C17.4005 20.62 18.0005 20.87 18.8605 21.03V16.86C18.2205 16.96 17.6805 17.18 17.2405 17.52C16.8005 17.86 16.5805 18.32 16.5805 18.9Z" fill="#572C57"/>
<path fill-rule="evenodd" clip-rule="evenodd" d="M0 9.54551C0 7.82763 0.702379 6.18011 1.95262 4.96539C3.20286 3.75066 4.89856 3.06824 6.66667 3.06824H33.3333C35.1014 3.06824 36.7971 3.75066 38.0474 4.96539C39.2976 6.18011 40 7.82763 40 9.54551V35.4546C40 37.1725 39.2976 38.82 38.0474 40.0347C36.7971 41.2495 35.1014 41.9319 33.3333 41.9319H6.66667C4.89856 41.9319 3.20286 41.2495 1.95262 40.0347C0.702379 38.82 0 37.1725 0 35.4546V9.54551ZM6.66667 7.38642H33.3333C33.9227 7.38642 34.4879 7.6139 34.9047 8.01881C35.3214 8.42371 35.5556 8.97289 35.5556 9.54551V35.4546C35.5556 36.0272 35.3214 36.5764 34.9047 36.9813C34.4879 37.3862 33.9227 37.6137 33.3333 37.6137H6.66667C6.0773 37.6137 5.51207 37.3862 5.09532 36.9813C4.67857 36.5764 4.44444 36.0272 4.44444 35.4546V9.54551C4.44444 8.97289 4.67857 8.42371 5.09532 8.01881C5.51207 7.6139 6.0773 7.38642 6.66667 7.38642Z" fill="#572C57"/>
</svg>
