<svg width="30" height="30" viewBox="0 0 30 30" fill="none" xmlns="http://www.w3.org/2000/svg">
<path d="M19.2375 15.9795C19.4145 15.5925 19.905 15.234 20.328 15.186C20.751 15.138 21.1365 14.751 21.1845 14.328C21.2355 13.908 21.5925 13.416 21.978 13.2375C22.1722 13.1387 22.3303 12.9811 22.4297 12.7872C22.529 12.5933 22.5647 12.3729 22.5315 12.1575C22.4445 11.7405 22.6335 11.163 22.9455 10.8765C23.1002 10.7222 23.202 10.5227 23.2363 10.3068C23.2705 10.0909 23.2354 9.86973 23.136 9.67505C23.0331 9.4657 22.9797 9.23555 22.9797 9.0023C22.9797 8.76904 23.0331 8.53889 23.136 8.32955C23.2356 8.13492 23.2709 7.91368 23.2366 7.69774C23.2024 7.4818 23.1004 7.28231 22.9455 7.12805C22.6335 6.83855 22.446 6.26255 22.5315 5.84705C22.5651 5.63123 22.5297 5.41032 22.4303 5.21583C22.3309 5.02134 22.1726 4.86322 21.978 4.76405C21.7719 4.65409 21.5934 4.49883 21.456 4.30995C21.3186 4.12107 21.2257 3.90348 21.1845 3.67355C21.1503 3.45855 21.0491 3.25984 20.8953 3.10577C20.7415 2.9517 20.5429 2.85013 20.328 2.81555C20.098 2.77512 19.8802 2.68278 19.6913 2.54554C19.5023 2.4083 19.3471 2.22978 19.2375 2.02355C19.1386 1.82901 18.9803 1.67097 18.7856 1.57229C18.5909 1.4736 18.3699 1.43937 18.1545 1.47455C17.9233 1.50695 17.6878 1.48623 17.4659 1.41398C17.2439 1.34172 17.0413 1.21982 16.8735 1.05755C16.584 0.742547 16.044 0.658547 15.6735 0.867047C15.303 1.07555 14.6955 1.07555 14.3265 0.867047C14.1324 0.766123 13.9111 0.729882 13.695 0.763613C13.4788 0.797345 13.2791 0.899283 13.125 1.05455C12.9573 1.21701 12.7548 1.33903 12.5328 1.4113C12.3108 1.48357 12.0752 1.50417 11.844 1.47155C11.6289 1.43694 11.4083 1.47161 11.2142 1.57057C11.02 1.66952 10.8624 1.82763 10.764 2.02205C10.5855 2.40605 10.095 2.76455 9.67201 2.81255C9.45668 2.84714 9.25778 2.94888 9.1037 3.10323C8.94962 3.25758 8.84823 3.45665 8.81401 3.67205C8.77332 3.90197 8.68069 4.11958 8.54318 4.3083C8.40568 4.49702 8.22691 4.65186 8.02051 4.76105C7.82659 4.86073 7.6691 5.0191 7.57052 5.21358C7.47193 5.40806 7.43728 5.62871 7.47151 5.84405C7.55401 6.25955 7.36651 6.83705 7.05451 7.12505C6.74251 7.41305 6.65551 7.95305 6.86401 8.32655C7.07251 8.69555 7.07251 9.30305 6.86401 9.67205C6.76451 9.86696 6.72934 10.0884 6.76357 10.3045C6.7978 10.5207 6.89965 10.7204 7.05451 10.875C7.36801 11.16 7.55401 11.7375 7.47151 12.156C7.43725 12.371 7.47191 12.5912 7.57054 12.7852C7.66916 12.9793 7.82668 13.1371 8.02051 13.236C8.40751 13.4145 8.76301 13.9065 8.81251 14.3265C8.86351 14.7495 9.24751 15.1365 9.67051 15.1845C10.0935 15.2325 10.584 15.5925 10.7625 15.978C10.8617 16.1717 11.0195 16.3291 11.2135 16.4277C11.4074 16.5263 11.6276 16.5611 11.8425 16.527C12.2595 16.4445 12.837 16.6305 13.1235 16.944C13.278 17.0986 13.4775 17.2002 13.6933 17.2345C13.9091 17.2687 14.1303 17.2337 14.325 17.1345C14.694 16.926 15.3015 16.926 15.672 17.1345C16.0425 17.343 16.5825 17.256 16.872 16.944C17.1615 16.629 17.736 16.4445 18.153 16.527C18.3684 16.5617 18.5893 16.5275 18.784 16.4292C18.9788 16.3308 19.1375 16.1735 19.2375 15.9795ZM15 14.0985C13.6474 14.0985 12.3502 13.5612 11.3938 12.6048C10.4373 11.6484 9.90001 10.3512 9.90001 8.99855C9.90001 7.64594 10.4373 6.34874 11.3938 5.3923C12.3502 4.43587 13.6474 3.89855 15 3.89855C16.3526 3.89855 17.6498 4.43587 18.6063 5.3923C19.5627 6.34874 20.1 7.64594 20.1 8.99855C20.1 10.3512 19.5627 11.6484 18.6063 12.6048C17.6498 13.5612 16.3526 14.0985 15 14.0985ZM8.96251 17.1135L7.09801 27.687L11.79 26.991L15.9615 29.25L17.8185 18.7185C16.3191 19.157 14.7382 19.2402 13.201 18.9616C11.6639 18.683 10.2127 18.0503 8.96251 17.1135ZM20.9415 17.1855C20.4731 17.526 19.9762 17.8256 19.4565 18.081L18.3345 24.435L23.388 21.693L20.9415 17.1855Z" fill="#572C57"/>
</svg>
